<?xml version="1.0" encoding="UTF-8" standalone="no"?>
<!-- Created with Inkscape (http://www.inkscape.org/) -->

<svg
   width="210mm"
   height="297mm"
   viewBox="0 0 210 297"
   version="1.1"
   id="svg1"
   inkscape:version="1.3.2 (1:1.3.2+202311252150+091e20ef0f)"
   sodipodi:docname="palette-workshop.svg"
   xmlns:inkscape="http://www.inkscape.org/namespaces/inkscape"
   xmlns:sodipodi="http://sodipodi.sourceforge.net/DTD/sodipodi-0.dtd"
   xmlns:xlink="http://www.w3.org/1999/xlink"
   xmlns="http://www.w3.org/2000/svg"
   xmlns:svg="http://www.w3.org/2000/svg">
  <sodipodi:namedview
     id="namedview1"
     pagecolor="#505050"
     bordercolor="#eeeeee"
     borderopacity="1"
     inkscape:showpageshadow="0"
     inkscape:pageopacity="0"
     inkscape:pagecheckerboard="0"
     inkscape:deskcolor="#d1d1d1"
     inkscape:document-units="mm"
     showguides="true"
     inkscape:zoom="1.2499879"
     inkscape:cx="413.20401"
     inkscape:cy="423.2041"
     inkscape:window-width="1562"
     inkscape:window-height="1009"
     inkscape:window-x="0"
     inkscape:window-y="0"
     inkscape:window-maximized="0"
     inkscape:current-layer="layer1" />
  <defs
     id="defs1" />
  <g
     inkscape:label="Calque 1"
     inkscape:groupmode="layer"
     id="layer1">
    <rect
       style="fill:#c3caa0;fill-rule:evenodd;stroke:none;stroke-width:5.5;stroke-linecap:square;paint-order:stroke markers fill;fill-opacity:1"
       id="rect1"
       width="172.61646"
       height="217.88266"
       x="21.620092"
       y="15.539888"
       ry="1.3357937" />
    <rect
       style="fill:#d09233;fill-opacity:1;fill-rule:evenodd;stroke:none;stroke-width:5.5;stroke-linecap:square;stroke-opacity:1;paint-order:stroke markers fill"
       id="rect2"
       width="56.352444"
       height="52.669327"
       x="67.388962"
       y="63.465973"
       ry="1.3357937" />
    <rect
       style="fill:#d4503c;fill-opacity:1;fill-rule:evenodd;stroke:none;stroke-width:5.5;stroke-linecap:square;stroke-opacity:1;paint-order:stroke markers fill"
       id="rect3"
       width="44.748684"
       height="53.845303"
       x="105.73376"
       y="95.792877"
       ry="1.3357937" />
    <path
       style="fill:#265950;fill-opacity:1;fill-rule:evenodd;stroke:none;stroke-width:5.5;stroke-linecap:square;stroke-opacity:1;paint-order:stroke markers fill"
       d="m 62.550074,138.09283 c 1.435835,-1.46127 24.388574,-38.663034 24.388574,-38.663034 0,0 16.212192,-5.907997 17.623762,-6.331333 1.41158,-0.423339 20.45591,-10.120503 22.04618,-9.889138 1.59026,0.231365 17.39825,4.308766 17.39825,4.308766 0,0 11.79662,7.129891 9.93284,7.129891 -1.86378,0 -25.43787,3.494886 -28.1651,5.811018 -2.72724,2.31613 -28.793307,36.28307 -28.793307,36.28307 l -20.291414,0.77127 z"
       id="path3" />
    <path
       style="fill:#5c65cc;fill-opacity:1;fill-rule:evenodd;stroke:none;stroke-width:5.5;stroke-linecap:square;stroke-opacity:1;paint-order:stroke markers fill"
       id="path4"
       sodipodi:type="arc"
       sodipodi:cx="95.923775"
       sodipodi:cy="88.237259"
       sodipodi:rx="14.42384"
       sodipodi:ry="15.952591"
       sodipodi:start="5.3875294"
       sodipodi:end="4.2741722"
       sodipodi:open="true"
       sodipodi:arc-type="arc"
       d="M 104.93877,75.78436 A 14.42384,15.952591 0 0 1 109.22691,94.402457 14.42384,15.952591 0 0 1 94.219094,104.07805 14.42384,15.952591 0 0 1 81.683885,90.776868 14.42384,15.952591 0 0 1 89.803373,73.792032" />
    <path
       sodipodi:type="star"
       style="fill:#e65db0;fill-opacity:1;fill-rule:evenodd;stroke:none;stroke-width:5.5;stroke-linecap:square;stroke-opacity:1;paint-order:stroke markers fill"
       id="path5"
       inkscape:flatsided="true"
       sodipodi:sides="3"
       sodipodi:cx="123.06238"
       sodipodi:cy="114.37122"
       sodipodi:r1="14.812623"
       sodipodi:r2="7.4063115"
       sodipodi:arg1="0.85035356"
       sodipodi:arg2="1.8975511"
       inkscape:rounded="0.08891154"
       inkscape:randomized="0"
       d="m 132.83452,125.50311 c -1.7143,1.50491 -23.85258,-5.99782 -24.29871,-8.2349 -0.44614,-2.23709 17.12056,-17.658036 19.28099,-16.92586 2.16044,0.73218 6.73203,23.65586 5.01772,25.16076 z"
       inkscape:transform-center-x="2.1931005"
       inkscape:transform-center-y="-1.3621924"
       transform="translate(-7.7108534,-1.1558093)" />
    <rect
       style="fill:#ffffff;fill-opacity:1;fill-rule:evenodd;stroke:none;stroke-width:5.5;stroke-linecap:square;stroke-opacity:1;paint-order:stroke markers fill"
       id="rect5"
       width="4.3872943"
       height="4.6649928"
       x="114.59373"
       y="111.57258"
       ry="1.3357937" />
    <use
       x="0"
       y="0"
       xlink:href="#rect5"
       id="use5"
       transform="translate(-42.963969,-32.571913)" />
    <use
       x="0"
       y="0"
       xlink:href="#rect5"
       id="use6"
       transform="translate(21.309048,19.320584)" />
  </g>
</svg>
